<svg xmlns="http://www.w3.org/2000/svg" viewBox="0 0 1269.71 179.11"><g id="Layer_2" data-name="Layer 2"><g id="Layer_1-2" data-name="Layer 1"><circle cx="89.56" cy="89.56" r="89.56" style="fill:#2eb454"/><path d="M145.47,85.88c-13.54-14-25-17.91-34.31-17.56C94,69,86.91,84.07,69.45,85.07c-13.2.76-25.15-4.93-35-14.43" style="fill:none;stroke:#231f20;stroke-linecap:round;stroke-miterlimit:10;stroke-width:14px"/><path d="M133.62,119.33c-11.38-11.8-21-15-28.83-14.76-14.44.56-20.39,13.24-35.07,14.08a37.69,37.69,0,0,1-29.38-10.8" style="fill:none;stroke:#231f20;stroke-linecap:round;stroke-miterlimit:10;stroke-width:12px"/><path d="M250.39,138.35a62.36,62.36,0,0,1-41.58-15.68l12.74-15.26c8.82,7.28,18.06,11.9,29.26,11.9,8.82,0,14.14-3.5,14.14-9.24v-.28c0-5.46-3.36-8.26-19.74-12.46-19.74-5-32.48-10.5-32.48-30v-.28c0-17.78,14.28-29.54,34.3-29.54,14.28,0,26.46,4.48,36.4,12.46l-11.2,16.24c-8.68-6-17.22-9.66-25.48-9.66s-12.6,3.78-12.6,8.54v.28c0,6.44,4.2,8.54,21.14,12.88,19.88,5.18,31.08,12.32,31.08,29.4V108C286.37,127.43,271.53,138.35,250.39,138.35Z" style="fill:#2eb454"/><path d="M339.71,138.63c-23.24,0-40.46-17.22-40.46-38.78v-.28c0-21.56,17.36-39.06,40.74-39.06s40.46,17.22,40.46,38.78v.28C380.45,121.13,363.09,138.63,339.71,138.63Zm19.74-39.06c0-11.06-8-20.72-19.74-20.72-12.18,0-19.46,9.38-19.46,20.44v.28c0,11.06,8,20.72,19.74,20.72,12.18,0,19.46-9.38,19.46-20.44Z" style="fill:#2eb454"/><path d="M442.74,137V126.31c-4.9,6.3-11.2,12-22,12-16.1,0-25.48-10.64-25.48-27.86V61.91h21.28v41.86c0,10.08,4.76,15.26,12.88,15.26s13.3-5.18,13.3-15.26V61.91H464v75Z" style="fill:#2eb454"/><path d="M530.52,137V95.09c0-10.08-4.76-15.26-12.88-15.26s-13.3,5.18-13.3,15.26V137H483.06v-75h21.28V72.55c4.9-6.3,11.2-12,22-12,16.1,0,25.48,10.64,25.48,27.86V137Z" style="fill:#2eb454"/><path d="M624.46,137V126.17c-5.18,7-12.32,12.18-23.38,12.18-17.5,0-34.16-13.72-34.16-38.78v-.28c0-25.06,16.38-38.78,34.16-38.78,11.34,0,18.34,5.18,23.38,11.2v-37h21.28V137Zm.28-37.66c0-12.46-8.26-20.72-18.2-20.72S588.2,86.69,588.2,99.29v.28c0,12.46,8.4,20.72,18.34,20.72s18.2-8.26,18.2-20.72Z" style="fill:#2eb454"/><path d="M743.88,138.35a62.36,62.36,0,0,1-41.58-15.68L715,107.41c8.82,7.28,18.06,11.9,29.26,11.9,8.82,0,14.14-3.5,14.14-9.24v-.28c0-5.46-3.36-8.26-19.74-12.46-19.74-5-32.48-10.5-32.48-30v-.28c0-17.78,14.28-29.54,34.3-29.54C754.8,37.55,767,42,776.92,50l-11.2,16.24c-8.68-6-17.22-9.66-25.48-9.66s-12.6,3.78-12.6,8.54v.28c0,6.44,4.2,8.54,21.14,12.88,19.88,5.18,31.08,12.32,31.08,29.4V108C779.86,127.43,765,138.35,743.88,138.35Z" style="fill:#2eb454"/><path d="M843.28,137V126.31c-4.9,6.3-11.2,12-22,12-16.1,0-25.48-10.64-25.48-27.86V61.91H817.1v41.86c0,10.08,4.76,15.26,12.88,15.26s13.3-5.18,13.3-15.26V61.91h21.28v75Z" style="fill:#2eb454"/><path d="M917.19,159.63A71.13,71.13,0,0,1,884,151.79l7.27-16a49,49,0,0,0,25.34,6.86c14.56,0,21.42-7,21.42-20.44v-3.64c-6.3,7.56-13.16,12.18-24.5,12.18-17.5,0-33.32-12.74-33.32-35v-.28c0-22.4,16.1-35,33.32-35,11.62,0,18.48,4.9,24.23,11.2v-9.8h21.27V120C959.05,148.29,945.05,159.63,917.19,159.63Zm20.86-64.12c0-10.22-8-17.36-18.34-17.36s-18.2,7.14-18.2,17.36v.28c0,10.36,7.85,17.36,18.2,17.36s18.34-7.14,18.34-17.36Z" style="fill:#2eb454"/><path d="M1011.69,159.63a71.2,71.2,0,0,1-33.18-7.84l7.28-16a49,49,0,0,0,25.34,6.86c14.56,0,21.42-7,21.42-20.44v-3.64c-6.3,7.56-13.16,12.18-24.5,12.18-17.5,0-33.32-12.74-33.32-35v-.28c0-22.4,16.1-35,33.32-35,11.62,0,18.48,4.9,24.22,11.2v-9.8h21.28V120C1053.55,148.29,1039.55,159.63,1011.69,159.63Zm20.86-64.12c0-10.22-8-17.36-18.34-17.36S996,85.29,996,95.51v.28c0,10.36,7.84,17.36,18.2,17.36s18.34-7.14,18.34-17.36Z" style="fill:#2eb454"/><path d="M1142.31,106.85h-52.22c2.1,9.66,8.82,14.7,18.34,14.7,7.14,0,12.32-2.24,18.2-7.7l12.18,10.78c-7,8.68-17.08,14-30.66,14-22.54,0-39.2-15.82-39.2-38.78v-.28c0-21.42,15.26-39.06,37.1-39.06,25.06,0,36.54,19.46,36.54,40.74v.28C1142.59,103.63,1142.45,104.89,1142.31,106.85Zm-36.26-29.26c-8.82,0-14.56,6.3-16.24,16h32.06C1120.61,84,1115,77.59,1106.05,77.59Z" style="fill:#2eb454"/><path d="M1184.73,138.35a52.57,52.57,0,0,1-32.2-11.34l9.1-14c8.12,5.88,16.66,9,23.66,9,6.16,0,9-2.24,9-5.6v-.28c0-4.62-7.28-6.16-15.54-8.68-10.5-3.08-22.4-8-22.4-22.54v-.28c0-15.26,12.32-23.8,27.44-23.8a51.93,51.93,0,0,1,28,8.68l-8.12,14.7c-7.42-4.34-14.84-7-20.3-7-5.18,0-7.84,2.24-7.84,5.18v.28c0,4.2,7.14,6.16,15.26,9,10.5,3.5,22.68,8.54,22.68,22.26v.28C1213.43,130.79,1201,138.35,1184.73,138.35Z" style="fill:#2eb454"/><path d="M1252.63,138.21c-13,0-21.84-5.18-21.84-22.54V80.11h-9V61.91h9V42.73h21.28V61.91h17.64v18.2h-17.64v32.06c0,4.9,2.1,7.28,6.86,7.28a21.64,21.64,0,0,0,10.5-2.66v17.08A31.37,31.37,0,0,1,1252.63,138.21Z" style="fill:#2eb454"/></g></g></svg>